<svg width="80" height="44" viewBox="0 0 80 44" fill="none" xmlns="http://www.w3.org/2000/svg">
<path fill-rule="evenodd" clip-rule="evenodd" d="M50.9659 28.04V29.34H57.0659V28.06L56.2259 27.9C55.9593 27.8467 55.7859 27.7533 55.7059 27.62C55.6393 27.4867 55.6059 27.2667 55.6059 26.96V14.22L55.3259 14L51.0459 14.18L50.9259 15.58L51.6459 15.7C51.9793 15.74 52.1926 15.84 52.2859 16C52.3793 16.1467 52.4259 16.4467 52.4259 16.9V26.9C52.4259 27.2733 52.3926 27.5267 52.3259 27.66C52.2593 27.78 52.0993 27.86 51.8459 27.9L50.9659 28.04ZM17.8205 28.98C18.5805 29.4067 19.4938 29.62 20.5605 29.62C21.6138 29.62 22.5138 29.42 23.2605 29.02C24.0205 28.62 24.6471 28.1 25.1405 27.46L24.3005 26.38C23.8471 26.7 23.3938 26.94 22.9405 27.1C22.5005 27.26 22.0271 27.34 21.5205 27.34C20.6138 27.34 19.9205 27.0333 19.4405 26.42C18.9738 25.8067 18.7405 24.92 18.7405 23.76C18.7405 23.0133 18.8271 22.38 19.0005 21.86C19.1871 21.34 19.4471 20.9533 19.7805 20.7C20.1138 20.4333 20.5005 20.3 20.9405 20.3C21.2605 20.3 21.5338 20.3267 21.7605 20.38C22.0005 20.4333 22.2338 20.5333 22.4605 20.68C22.2471 21.04 22.1005 21.3267 22.0205 21.54C21.9405 21.74 21.9005 21.92 21.9005 22.08C21.9005 22.4267 22.0271 22.7 22.2805 22.9C22.5471 23.1 22.9071 23.2 23.3605 23.2C23.7471 23.2 24.0605 23.1267 24.3005 22.98C24.5405 22.82 24.7138 22.62 24.8205 22.38C24.9405 22.1267 25.0005 21.8533 25.0005 21.56C25.0005 21.0667 24.8405 20.6133 24.5205 20.2C24.2005 19.7867 23.7338 19.4533 23.1205 19.2C22.5205 18.9333 21.8005 18.8 20.9605 18.8C19.8138 18.8 18.8271 19.04 18.0005 19.52C17.1871 19.9867 16.5605 20.64 16.1205 21.48C15.6938 22.32 15.4805 23.3 15.4805 24.42C15.4805 25.4733 15.6805 26.3933 16.0805 27.18C16.4805 27.9533 17.0605 28.5533 17.8205 28.98ZM62.34 29.62C61.66 29.62 61.0867 29.5067 60.62 29.28C60.1533 29.0533 59.8 28.7133 59.56 28.26C59.3333 27.7933 59.22 27.2133 59.22 26.52V20.7H57.78V19.34C58.3667 19.26 58.8333 19.0867 59.18 18.82C59.5267 18.5533 59.7867 18.1733 59.96 17.68C60.1333 17.1867 60.26 16.5667 60.34 15.82L62.06 15.58L62.38 15.76V19.08H65.22V20.7H62.38V26C62.38 26.4933 62.4667 26.8733 62.64 27.14C62.8133 27.4067 63.1267 27.54 63.58 27.54C63.86 27.54 64.14 27.4933 64.42 27.4C64.7 27.2933 64.9733 27.1533 65.24 26.98L65.86 28.08C65.4467 28.5333 64.9467 28.9067 64.36 29.2C63.7867 29.48 63.1133 29.62 62.34 29.62ZM8.32385 29C7.8552 29 7.532 28.868 7.35424 28.604C7.19264 28.3399 7.1684 27.9851 7.28152 27.5396L7.91176 24.9901L6.23919 26.6733C5.91599 27.0198 5.56046 27.1931 5.17262 27.1931C4.80094 27.1931 4.48581 26.9538 4.22725 26.4752C3.98485 26.0462 3.93637 25.6914 4.08181 25.4109C4.22725 25.1304 4.51005 24.9323 4.93022 24.8168L7.52392 24.0248L5.19686 23.3069C4.6959 23.1584 4.36461 22.9191 4.20301 22.5891C4.04141 22.2591 4.08989 21.863 4.34845 21.401C4.57469 20.9884 4.84942 20.7739 5.17262 20.7574C5.49582 20.7244 5.80286 20.8729 6.09375 21.203L7.936 23.0842L7.37848 20.7079C7.26536 20.2129 7.30576 19.8086 7.49968 19.4951C7.70976 19.165 8.08144 19 8.61473 19C9.06721 19 9.38233 19.132 9.5601 19.396C9.73786 19.6436 9.7621 19.9984 9.63282 20.4604L8.97833 23.0842L10.7236 21.401C11.0953 21.0545 11.467 20.8894 11.8387 20.9059C12.2104 20.9059 12.5255 21.1452 12.784 21.6238C13.0103 22.0363 13.0588 22.3828 12.9295 22.6634C12.8002 22.9274 12.5012 23.1254 12.0326 23.2574L9.41465 24.0495L11.7902 24.7921C12.2427 24.9406 12.5578 25.1799 12.7356 25.5099C12.9133 25.8399 12.8729 26.2442 12.6144 26.7228C12.3881 27.1353 12.1215 27.3498 11.8144 27.3663C11.5074 27.3828 11.1923 27.2178 10.8691 26.8713L9.00257 25.0396L9.53586 27.2921C9.64898 27.7706 9.60858 28.1749 9.41465 28.505C9.22073 28.835 8.85713 29 8.32385 29ZM30.8542 28.604C31.032 28.868 31.3552 29 31.8238 29C32.3571 29 32.7207 28.835 32.9147 28.505C33.1086 28.1749 33.149 27.7706 33.0359 27.2921L32.5026 25.0396L34.3691 26.8713C34.6923 27.2178 35.0074 27.3828 35.3144 27.3663C35.6215 27.3498 35.8881 27.1353 36.1144 26.7228C36.3729 26.2442 36.4133 25.8399 36.2356 25.5099C36.0578 25.1799 35.7427 24.9406 35.2902 24.7921L32.9147 24.0495L35.5326 23.2574C36.0012 23.1254 36.3002 22.9274 36.4295 22.6634C36.5588 22.3828 36.5103 22.0363 36.284 21.6238C36.0255 21.1452 35.7104 20.9059 35.3387 20.9059C34.967 20.8894 34.5953 21.0545 34.2236 21.401L32.4783 23.0842L33.1328 20.4604C33.2621 19.9984 33.2379 19.6436 33.0601 19.396C32.8823 19.132 32.5672 19 32.1147 19C31.5814 19 31.2098 19.165 30.9997 19.4951C30.8058 19.8086 30.7654 20.2129 30.8785 20.7079L31.436 23.0842L29.5937 21.203C29.3029 20.8729 28.9958 20.7244 28.6726 20.7574C28.3494 20.7739 28.0747 20.9884 27.8485 21.401C27.5899 21.863 27.5414 22.2591 27.703 22.5891C27.8646 22.9191 28.1959 23.1584 28.6969 23.3069L31.0239 24.0248L28.4302 24.8168C28.0101 24.9323 27.7273 25.1304 27.5818 25.4109C27.4364 25.6914 27.4848 26.0462 27.7273 26.4752C27.9858 26.9538 28.3009 27.1931 28.6726 27.1931C29.0605 27.1931 29.416 27.0198 29.7392 26.6733L31.4118 24.9901L30.7815 27.5396C30.6684 27.9851 30.6926 28.3399 30.8542 28.604ZM43.3238 29C42.8552 29 42.532 28.868 42.3542 28.604C42.1926 28.3399 42.1684 27.9851 42.2815 27.5396L42.9118 24.9901L41.2392 26.6733C40.916 27.0198 40.5605 27.1931 40.1726 27.1931C39.8009 27.1931 39.4858 26.9538 39.2273 26.4752C38.9848 26.0462 38.9364 25.6914 39.0818 25.4109C39.2273 25.1304 39.5101 24.9323 39.9302 24.8168L42.5239 24.0248L40.1969 23.3069C39.6959 23.1584 39.3646 22.9191 39.203 22.5891C39.0414 22.2591 39.0899 21.863 39.3485 21.401C39.5747 20.9884 39.8494 20.7739 40.1726 20.7574C40.4958 20.7244 40.8029 20.8729 41.0937 21.203L42.936 23.0842L42.3785 20.7079C42.2654 20.2129 42.3058 19.8086 42.4997 19.4951C42.7098 19.165 43.0814 19 43.6147 19C44.0672 19 44.3823 19.132 44.5601 19.396C44.7379 19.6436 44.7621 19.9984 44.6328 20.4604L43.9783 23.0842L45.7236 21.401C46.0953 21.0545 46.467 20.8894 46.8387 20.9059C47.2104 20.9059 47.5255 21.1452 47.784 21.6238C48.0103 22.0363 48.0588 22.3828 47.9295 22.6634C47.8002 22.9274 47.5012 23.1254 47.0326 23.2574L44.4147 24.0495L46.7902 24.7921C47.2427 24.9406 47.5578 25.1799 47.7356 25.5099C47.9133 25.8399 47.8729 26.2442 47.6144 26.7228C47.3881 27.1353 47.1215 27.3498 46.8144 27.3663C46.5074 27.3828 46.1923 27.2178 45.8691 26.8713L44.0026 25.0396L44.5359 27.2921C44.649 27.7706 44.6086 28.1749 44.4147 28.505C44.2207 28.835 43.8571 29 43.3238 29ZM70.8542 28.604C71.032 28.868 71.3552 29 71.8238 29C72.3571 29 72.7207 28.835 72.9147 28.505C73.1086 28.1749 73.149 27.7706 73.0359 27.2921L72.5026 25.0396L74.3691 26.8713C74.6923 27.2178 75.0074 27.3828 75.3144 27.3663C75.6215 27.3498 75.8881 27.1353 76.1144 26.7228C76.3729 26.2442 76.4133 25.8399 76.2356 25.5099C76.0578 25.1799 75.7427 24.9406 75.2902 24.7921L72.9147 24.0495L75.5326 23.2574C76.0012 23.1254 76.3002 22.9274 76.4295 22.6634C76.5588 22.3828 76.5103 22.0363 76.284 21.6238C76.0255 21.1452 75.7104 20.9059 75.3387 20.9059C74.967 20.8894 74.5953 21.0545 74.2236 21.401L72.4783 23.0842L73.1328 20.4604C73.2621 19.9984 73.2379 19.6436 73.0601 19.396C72.8823 19.132 72.5672 19 72.1147 19C71.5814 19 71.2098 19.165 70.9997 19.4951C70.8058 19.8086 70.7654 20.2129 70.8785 20.7079L71.436 23.0842L69.5938 21.203C69.3029 20.8729 68.9958 20.7244 68.6726 20.7574C68.3494 20.7739 68.0747 20.9884 67.8485 21.401C67.5899 21.863 67.5414 22.2591 67.703 22.5891C67.8646 22.9191 68.1959 23.1584 68.6969 23.3069L71.0239 24.0248L68.4302 24.8168C68.0101 24.9323 67.7273 25.1304 67.5818 25.4109C67.4364 25.6914 67.4848 26.0462 67.7273 26.4752C67.9858 26.9538 68.3009 27.1931 68.6726 27.1931C69.0605 27.1931 69.416 27.0198 69.7392 26.6733L71.4118 24.9901L70.7815 27.5396C70.6684 27.9851 70.6926 28.3399 70.8542 28.604Z" fill="#78350F"/>
</svg>
