<svg width="80" height="44" viewBox="0 0 80 44" fill="none" xmlns="http://www.w3.org/2000/svg">
<path d="M8.38 29.62C7.24667 29.62 6.28 29.42 5.48 29.02C4.68 28.6067 4.06667 28.0133 3.64 27.24C3.21333 26.4667 3 25.52 3 24.4C3 23.16 3.23333 22.1267 3.7 21.3C4.18 20.4733 4.85333 19.8533 5.72 19.44C6.58667 19.0133 7.59333 18.8 8.74 18.8C9.79333 18.8 10.7133 18.9933 11.5 19.38C12.2867 19.7533 12.9 20.3267 13.34 21.1C13.7933 21.86 14.02 22.82 14.02 23.98C14.02 25.1667 13.7933 26.1867 13.34 27.04C12.8867 27.88 12.24 28.52 11.4 28.96C10.56 29.4 9.55333 29.62 8.38 29.62ZM8.64 28C9.12 28 9.50667 27.8733 9.8 27.62C10.0933 27.3533 10.3067 26.9533 10.44 26.42C10.5733 25.8867 10.64 25.2133 10.64 24.4C10.64 23.6667 10.5867 23.0467 10.48 22.54C10.3867 22.0333 10.24 21.6267 10.04 21.32C9.85333 21 9.62 20.7667 9.34 20.62C9.07333 20.4733 8.76667 20.4 8.42 20.4C7.99333 20.4 7.62 20.5133 7.3 20.74C6.99333 20.9533 6.76 21.3067 6.6 21.8C6.44 22.2933 6.36 22.9533 6.36 23.78C6.36 24.7267 6.44 25.5133 6.6 26.14C6.77333 26.7667 7.02667 27.2333 7.36 27.54C7.70667 27.8467 8.13333 28 8.64 28Z" fill="#78350F"/>
<path d="M20.5605 29.62C19.4938 29.62 18.5805 29.4067 17.8205 28.98C17.0605 28.5533 16.4805 27.9533 16.0805 27.18C15.6805 26.3933 15.4805 25.4733 15.4805 24.42C15.4805 23.3 15.6938 22.32 16.1205 21.48C16.5605 20.64 17.1871 19.9867 18.0005 19.52C18.8271 19.04 19.8138 18.8 20.9605 18.8C21.8005 18.8 22.5205 18.9333 23.1205 19.2C23.7338 19.4533 24.2005 19.7867 24.5205 20.2C24.8405 20.6133 25.0005 21.0667 25.0005 21.56C25.0005 21.8533 24.9405 22.1267 24.8205 22.38C24.7138 22.62 24.5405 22.82 24.3005 22.98C24.0605 23.1267 23.7471 23.2 23.3605 23.2C22.9071 23.2 22.5471 23.1 22.2805 22.9C22.0271 22.7 21.9005 22.4267 21.9005 22.08C21.9005 21.92 21.9405 21.74 22.0205 21.54C22.1005 21.3267 22.2471 21.04 22.4605 20.68C22.2338 20.5333 22.0005 20.4333 21.7605 20.38C21.5338 20.3267 21.2605 20.3 20.9405 20.3C20.5005 20.3 20.1138 20.4333 19.7805 20.7C19.4471 20.9533 19.1871 21.34 19.0005 21.86C18.8271 22.38 18.7405 23.0133 18.7405 23.76C18.7405 24.92 18.9738 25.8067 19.4405 26.42C19.9205 27.0333 20.6138 27.34 21.5205 27.34C22.0271 27.34 22.5005 27.26 22.9405 27.1C23.3938 26.94 23.8471 26.7 24.3005 26.38L25.1405 27.46C24.6471 28.1 24.0205 28.62 23.2605 29.02C22.5138 29.42 21.6138 29.62 20.5605 29.62Z" fill="#78350F"/>
<path d="M31.6417 29.62C30.5084 29.62 29.5417 29.42 28.7417 29.02C27.9417 28.6067 27.3284 28.0133 26.9017 27.24C26.4751 26.4667 26.2617 25.52 26.2617 24.4C26.2617 23.16 26.4951 22.1267 26.9617 21.3C27.4417 20.4733 28.1151 19.8533 28.9817 19.44C29.8484 19.0133 30.8551 18.8 32.0017 18.8C33.0551 18.8 33.9751 18.9933 34.7617 19.38C35.5484 19.7533 36.1617 20.3267 36.6017 21.1C37.0551 21.86 37.2817 22.82 37.2817 23.98C37.2817 25.1667 37.0551 26.1867 36.6017 27.04C36.1484 27.88 35.5017 28.52 34.6617 28.96C33.8217 29.4 32.8151 29.62 31.6417 29.62ZM31.9017 28C32.3817 28 32.7684 27.8733 33.0617 27.62C33.3551 27.3533 33.5684 26.9533 33.7017 26.42C33.8351 25.8867 33.9017 25.2133 33.9017 24.4C33.9017 23.6667 33.8484 23.0467 33.7417 22.54C33.6484 22.0333 33.5017 21.6267 33.3017 21.32C33.1151 21 32.8817 20.7667 32.6017 20.62C32.3351 20.4733 32.0284 20.4 31.6817 20.4C31.2551 20.4 30.8817 20.5133 30.5617 20.74C30.2551 20.9533 30.0217 21.3067 29.8617 21.8C29.7017 22.2933 29.6217 22.9533 29.6217 23.78C29.6217 24.7267 29.7017 25.5133 29.8617 26.14C30.0351 26.7667 30.2884 27.2333 30.6217 27.54C30.9684 27.8467 31.3951 28 31.9017 28Z" fill="#78350F"/>
<path d="M44.1222 29.62C42.9889 29.62 42.0222 29.42 41.2222 29.02C40.4222 28.6067 39.8089 28.0133 39.3822 27.24C38.9555 26.4667 38.7422 25.52 38.7422 24.4C38.7422 23.16 38.9755 22.1267 39.4422 21.3C39.9222 20.4733 40.5955 19.8533 41.4622 19.44C42.3289 19.0133 43.3355 18.8 44.4822 18.8C45.5355 18.8 46.4555 18.9933 47.2422 19.38C48.0289 19.7533 48.6422 20.3267 49.0822 21.1C49.5355 21.86 49.7622 22.82 49.7622 23.98C49.7622 25.1667 49.5355 26.1867 49.0822 27.04C48.6289 27.88 47.9822 28.52 47.1422 28.96C46.3022 29.4 45.2955 29.62 44.1222 29.62ZM44.3822 28C44.8622 28 45.2489 27.8733 45.5422 27.62C45.8355 27.3533 46.0489 26.9533 46.1822 26.42C46.3155 25.8867 46.3822 25.2133 46.3822 24.4C46.3822 23.6667 46.3289 23.0467 46.2222 22.54C46.1289 22.0333 45.9822 21.6267 45.7822 21.32C45.5955 21 45.3622 20.7667 45.0822 20.62C44.8155 20.4733 44.5089 20.4 44.1622 20.4C43.7355 20.4 43.3622 20.5133 43.0422 20.74C42.7355 20.9533 42.5022 21.3067 42.3422 21.8C42.1822 22.2933 42.1022 22.9533 42.1022 23.78C42.1022 24.7267 42.1822 25.5133 42.3422 26.14C42.5155 26.7667 42.7689 27.2333 43.1022 27.54C43.4489 27.8467 43.8755 28 44.3822 28Z" fill="#78350F"/>
<path d="M50.9659 29.34V28.04L51.8459 27.9C52.0993 27.86 52.2593 27.78 52.3259 27.66C52.3926 27.5267 52.4259 27.2733 52.4259 26.9V16.9C52.4259 16.4467 52.3793 16.1467 52.2859 16C52.1926 15.84 51.9793 15.74 51.6459 15.7L50.9259 15.58L51.0459 14.18L55.3259 14L55.6059 14.22V26.96C55.6059 27.2667 55.6393 27.4867 55.7059 27.62C55.7859 27.7533 55.9593 27.8467 56.2259 27.9L57.0659 28.06V29.34H50.9659Z" fill="#78350F"/>
<path d="M62.34 29.62C61.66 29.62 61.0867 29.5067 60.62 29.28C60.1533 29.0533 59.8 28.7133 59.56 28.26C59.3333 27.7933 59.22 27.2133 59.22 26.52V20.7H57.78V19.34C58.3667 19.26 58.8333 19.0867 59.18 18.82C59.5267 18.5533 59.7867 18.1733 59.96 17.68C60.1333 17.1867 60.26 16.5667 60.34 15.82L62.06 15.58L62.38 15.76V19.08H65.22V20.7H62.38V26C62.38 26.4933 62.4667 26.8733 62.64 27.14C62.8133 27.4067 63.1267 27.54 63.58 27.54C63.86 27.54 64.14 27.4933 64.42 27.4C64.7 27.2933 64.9733 27.1533 65.24 26.98L65.86 28.08C65.4467 28.5333 64.9467 28.9067 64.36 29.2C63.7867 29.48 63.1133 29.62 62.34 29.62Z" fill="#78350F"/>
<path d="M71.8956 29.62C70.7623 29.62 69.7956 29.42 68.9956 29.02C68.1956 28.6067 67.5823 28.0133 67.1556 27.24C66.729 26.4667 66.5156 25.52 66.5156 24.4C66.5156 23.16 66.749 22.1267 67.2156 21.3C67.6956 20.4733 68.369 19.8533 69.2356 19.44C70.1023 19.0133 71.109 18.8 72.2556 18.8C73.309 18.8 74.229 18.9933 75.0156 19.38C75.8023 19.7533 76.4156 20.3267 76.8556 21.1C77.309 21.86 77.5356 22.82 77.5356 23.98C77.5356 25.1667 77.309 26.1867 76.8556 27.04C76.4023 27.88 75.7556 28.52 74.9156 28.96C74.0756 29.4 73.069 29.62 71.8956 29.62ZM72.1556 28C72.6356 28 73.0223 27.8733 73.3156 27.62C73.609 27.3533 73.8223 26.9533 73.9556 26.42C74.089 25.8867 74.1556 25.2133 74.1556 24.4C74.1556 23.6667 74.1023 23.0467 73.9956 22.54C73.9023 22.0333 73.7556 21.6267 73.5556 21.32C73.369 21 73.1356 20.7667 72.8556 20.62C72.589 20.4733 72.2823 20.4 71.9356 20.4C71.509 20.4 71.1356 20.5133 70.8156 20.74C70.509 20.9533 70.2756 21.3067 70.1156 21.8C69.9556 22.2933 69.8756 22.9533 69.8756 23.78C69.8756 24.7267 69.9556 25.5133 70.1156 26.14C70.289 26.7667 70.5423 27.2333 70.8756 27.54C71.2223 27.8467 71.649 28 72.1556 28Z" fill="#78350F"/>
</svg>
